<svg width="1800" height="500" viewBox="0 0 1800 500" fill="none" xmlns="http://www.w3.org/2000/svg">
<g clip-path="url(#clip0_5_34)">
<path d="M234.6 110.8V156H160.2V390H104.2V156H29.8V110.8H234.6ZM233.059 278.4C233.059 256 237.459 236.133 246.259 218.8C255.326 201.467 267.459 188.133 282.659 178.8C298.126 169.467 315.326 164.8 334.259 164.8C350.793 164.8 365.193 168.133 377.459 174.8C389.993 181.467 399.993 189.867 407.459 200V168.4H463.859V390H407.459V357.6C400.259 368 390.259 376.667 377.459 383.6C364.926 390.267 350.393 393.6 333.859 393.6C315.193 393.6 298.126 388.8 282.659 379.2C267.459 369.6 255.326 356.133 246.259 338.8C237.459 321.2 233.059 301.067 233.059 278.4ZM407.459 279.2C407.459 265.6 404.793 254 399.459 244.4C394.126 234.533 386.926 227.067 377.859 222C368.793 216.667 359.059 214 348.659 214C338.259 214 328.659 216.533 319.859 221.6C311.059 226.667 303.859 234.133 298.259 244C292.926 253.6 290.259 265.067 290.259 278.4C290.259 291.733 292.926 303.467 298.259 313.6C303.859 323.467 311.059 331.067 319.859 336.4C328.926 341.733 338.526 344.4 348.659 344.4C359.059 344.4 368.793 341.867 377.859 336.8C386.926 331.467 394.126 324 399.459 314.4C404.793 304.533 407.459 292.8 407.459 279.2ZM575.353 393.6C557.22 393.6 540.953 390.4 526.553 384C512.153 377.333 500.686 368.4 492.153 357.2C483.886 346 479.353 333.6 478.553 320H534.953C536.02 328.533 540.153 335.6 547.353 341.2C554.82 346.8 564.02 349.6 574.953 349.6C585.62 349.6 593.886 347.467 599.753 343.2C605.886 338.933 608.953 333.467 608.953 326.8C608.953 319.6 605.22 314.267 597.753 310.8C590.553 307.067 578.953 303.067 562.953 298.8C546.42 294.8 532.82 290.667 522.153 286.4C511.753 282.133 502.686 275.6 494.953 266.8C487.486 258 483.753 246.133 483.753 231.2C483.753 218.933 487.22 207.733 494.153 197.6C501.353 187.467 511.486 179.467 524.553 173.6C537.886 167.733 553.486 164.8 571.353 164.8C597.753 164.8 618.82 171.467 634.553 184.8C650.286 197.867 658.953 215.6 660.553 238H606.953C606.153 229.2 602.42 222.267 595.753 217.2C589.353 211.867 580.686 209.2 569.753 209.2C559.62 209.2 551.753 211.067 546.153 214.8C540.82 218.533 538.153 223.733 538.153 230.4C538.153 237.867 541.886 243.6 549.353 247.6C556.82 251.333 568.42 255.2 584.153 259.2C600.153 263.2 613.353 267.333 623.753 271.6C634.153 275.867 643.086 282.533 650.553 291.6C658.286 300.4 662.286 312.133 662.553 326.8C662.553 339.6 658.953 351.067 651.753 361.2C644.82 371.333 634.686 379.333 621.353 385.2C608.286 390.8 592.953 393.6 575.353 393.6ZM811.722 390L736.522 295.6V390H680.522V94H736.522V262.4L810.922 168.4H883.722L786.122 279.6L884.522 390H811.722ZM1058.52 110.8V156H942.116V227.6H1031.32V272H942.116V390H886.116V110.8H1058.52ZM1126.23 94V390H1070.23V94H1126.23ZM1251.95 393.6C1230.62 393.6 1211.42 388.933 1194.35 379.6C1177.29 370 1163.82 356.533 1153.95 339.2C1144.35 321.867 1139.55 301.867 1139.55 279.2C1139.55 256.533 1144.49 236.533 1154.35 219.2C1164.49 201.867 1178.22 188.533 1195.55 179.2C1212.89 169.6 1232.22 164.8 1253.55 164.8C1274.89 164.8 1294.22 169.6 1311.55 179.2C1328.89 188.533 1342.49 201.867 1352.35 219.2C1362.49 236.533 1367.55 256.533 1367.55 279.2C1367.55 301.867 1362.35 321.867 1351.95 339.2C1341.82 356.533 1327.95 370 1310.35 379.6C1293.02 388.933 1273.55 393.6 1251.95 393.6ZM1251.95 344.8C1262.09 344.8 1271.55 342.4 1280.35 337.6C1289.42 332.533 1296.62 325.067 1301.95 315.2C1307.29 305.333 1309.95 293.333 1309.95 279.2C1309.95 258.133 1304.35 242 1293.15 230.8C1282.22 219.333 1268.75 213.6 1252.75 213.6C1236.75 213.6 1223.29 219.333 1212.35 230.8C1201.69 242 1196.35 258.133 1196.35 279.2C1196.35 300.267 1201.55 316.533 1211.95 328C1222.62 339.2 1235.95 344.8 1251.95 344.8ZM1687.83 168.4L1623.03 390H1562.63L1522.23 235.2L1481.83 390H1421.03L1355.83 168.4H1412.63L1451.83 337.2L1494.23 168.4H1553.43L1595.03 336.8L1634.23 168.4H1687.83Z" fill="#389472"/>
<path d="M318.243 273.882L339.263 296.134" stroke="#389472" stroke-width="15" stroke-linecap="round"/>
<path d="M382.736 264.328L339.351 296.231" stroke="#389472" stroke-width="15" stroke-linecap="round"/>
<path d="M1223.34 273.882L1244.36 296.134" stroke="#389472" stroke-width="15" stroke-linecap="round"/>
<path d="M1287.83 264.328L1244.45 296.231" stroke="#389472" stroke-width="15" stroke-linecap="round"/>
<path d="M133 405L1755 405" stroke="#389472" stroke-width="30" stroke-linejoin="round"/>
<line x1="1706.22" y1="361.51" x2="1764.51" y2="405.785" stroke="#389472" stroke-width="26" stroke-linecap="round"/>
<line x1="13" y1="-13" x2="86.2018" y2="-13" transform="matrix(-0.796356 0.604828 0.604828 0.796356 1783 409)" stroke="#389472" stroke-width="26" stroke-linecap="round"/>
<circle cx="131" cy="393" r="27" fill="#389472"/>
<path d="M160 350V350.747C160 367.26 168.95 382.476 183.383 390.5V390.5H136.617L160 350Z" fill="#389472"/>
<path d="M1492.38 350V350.747C1492.38 367.26 1501.33 382.476 1515.77 390.5V390.5H1469L1492.38 350Z" fill="#389472"/>
<path d="M1634.38 350V350.747C1634.38 367.26 1643.33 382.476 1657.77 390.5V390.5H1611L1634.38 350Z" fill="#389472"/>
<path d="M942.383 353V353.747C942.383 370.26 951.333 385.476 965.765 393.5V393.5H919L942.383 353Z" fill="#389472"/>
<path d="M1126.38 350L1127.36 353.642C1131.25 368.111 1141.42 380.075 1155.07 386.241L1164.5 390.5H1103L1126.38 350Z" fill="#389472"/>
<path d="M463.383 350V350C463.383 366.638 473.428 381.63 488.817 387.958L495 390.5H440L463.383 350Z" fill="#389472"/>
</g>
<defs>
<clipPath id="clip0_5_34">
<rect width="1800" height="500" fill="white"/>
</clipPath>
</defs>
</svg>
