<svg width="450" height="340" viewBox="0 0 450 340" fill="none" xmlns="http://www.w3.org/2000/svg">
<g clip-path="url(#clip0_53_10)">
<path d="M399.387 321.456L392.169 323.413L392.129 322.164C392.122 321.572 392.055 320.983 391.93 320.404C391.793 319.898 391.46 319.467 391.006 319.206C390.551 318.945 390.011 318.876 389.504 319.013C388.998 319.15 388.567 319.483 388.306 319.938C388.045 320.393 387.976 320.933 388.113 321.439C388.298 322.001 388.538 322.543 388.831 323.058L389.427 324.156L382.209 326.113L378.328 311.798C378.123 311.039 378.227 310.229 378.618 309.546C379.009 308.864 379.656 308.365 380.415 308.159L382.583 307.571C382.263 306.986 382.002 306.37 381.806 305.733C381.532 304.72 381.671 303.64 382.193 302.73C382.715 301.82 383.577 301.155 384.589 300.881C385.601 300.606 386.681 300.745 387.591 301.267C388.501 301.789 389.167 302.651 389.441 303.663C389.594 304.312 389.68 304.975 389.699 305.642L391.867 305.054C392.626 304.849 393.436 304.953 394.119 305.344C394.801 305.735 395.3 306.382 395.506 307.141L395.965 308.832C396.55 308.512 397.166 308.252 397.803 308.055C398.815 307.781 399.895 307.92 400.805 308.442C401.715 308.963 402.381 309.825 402.655 310.838C402.93 311.85 402.791 312.93 402.269 313.84C401.747 314.75 400.885 315.415 399.873 315.69C399.223 315.842 398.56 315.929 397.894 315.948L399.387 321.456ZM394.016 320.863L396.961 320.065L395.3 313.94L396.634 313.98C397.546 314.026 398.46 313.959 399.355 313.781C399.861 313.644 400.292 313.311 400.553 312.856C400.814 312.401 400.884 311.861 400.746 311.355C400.609 310.849 400.277 310.418 399.822 310.157C399.367 309.896 398.827 309.827 398.32 309.964C397.458 310.263 396.635 310.667 395.871 311.167L394.741 311.875L393.598 307.659C393.529 307.406 393.363 307.19 393.135 307.06C392.908 306.929 392.638 306.894 392.385 306.963L387.691 308.235L387.731 306.902C387.777 305.99 387.711 305.076 387.532 304.181C387.395 303.674 387.063 303.243 386.608 302.982C386.153 302.722 385.613 302.652 385.106 302.789C384.6 302.927 384.169 303.259 383.908 303.714C383.647 304.169 383.578 304.709 383.715 305.215C384.014 306.078 384.418 306.901 384.918 307.665L385.626 308.795L380.933 310.067C380.68 310.136 380.464 310.302 380.334 310.53C380.203 310.757 380.168 311.027 380.237 311.281L383.6 323.687L386.545 322.888C386.41 322.586 386.296 322.275 386.204 321.956C385.93 320.944 386.069 319.864 386.591 318.954C387.113 318.044 387.975 317.379 388.987 317.104C389.999 316.83 391.079 316.969 391.989 317.491C392.899 318.012 393.565 318.874 393.839 319.887C393.921 320.208 393.98 320.534 394.016 320.863Z" fill="#2563EB"/>
</g>
<g clip-path="url(#clip1_53_10)">
<path d="M45.6788 223.068C45.543 223.768 44.8647 224.226 44.1648 224.09L18.8041 219.171C16.7068 218.764 15.3311 216.726 15.7379 214.629L20.6571 189.268C20.7929 188.568 21.4712 188.11 22.1711 188.246C22.8711 188.382 23.329 189.06 23.1932 189.76L18.274 215.121C18.1385 215.819 18.5974 216.499 19.2961 216.635L44.6567 221.554C45.3567 221.69 45.8145 222.368 45.6788 223.068ZM46.302 199.505L41.2298 198.521C40.5299 198.386 39.8516 198.844 39.7158 199.544C39.5801 200.244 40.038 200.922 40.7379 201.058L45.2559 201.934L37.9393 206.708C37.3683 207.094 36.5327 206.932 36.1476 206.36C36.1055 206.3 34.7962 204.923 34.7962 204.923C33.6171 203.283 31.1485 202.857 29.5061 203.964L22.6052 208.433C22.0063 208.821 21.8354 209.621 22.2232 210.22C22.4228 210.527 22.7284 210.722 23.0619 210.786C23.3789 210.848 23.7188 210.791 24.0093 210.603L30.9314 206.12C31.5024 205.733 32.338 205.895 32.7231 206.467C32.7652 206.528 34.0745 207.904 34.0745 207.904C35.2547 209.546 37.7202 209.974 39.3679 208.86L46.7344 204.052L45.8473 208.626C45.7115 209.326 46.1694 210.004 46.8693 210.14C47.5693 210.276 48.2475 209.818 48.3833 209.118L49.3672 204.046C49.774 201.948 48.3983 199.911 46.3009 199.504L46.302 199.505Z" fill="#EA580C"/>
</g>
<g clip-path="url(#clip2_53_10)">
<path d="M169.918 31.705C170.117 29.6164 169.295 27.5648 167.733 26.1543C167.973 23.6266 166.389 21.3145 164.061 20.5426C163.733 18.1354 161.764 16.1625 159.209 15.9194C157.609 15.7671 156.089 16.334 155.002 17.3448C154.126 16.1472 152.741 15.3039 151.141 15.1516C148.586 14.9085 146.279 16.4744 145.504 18.7767C143.072 19.0957 141.08 21.0674 140.839 23.5951C139.039 24.6857 137.845 26.5453 137.646 28.634C137.533 29.818 137.748 30.9795 138.257 32.0482C137.556 33.0017 137.125 34.1018 137.013 35.2858C136.799 37.5341 137.759 39.7062 139.537 41.1239C140.217 44.2493 142.831 46.5788 146.085 46.8884C148.586 47.1264 150.909 46.0991 152.433 44.3512C153.599 46.355 155.686 47.8021 158.187 48.0401C161.442 48.3497 164.45 46.5418 165.705 43.614C167.718 42.5705 169.071 40.6052 169.285 38.3569C169.398 37.1728 169.183 36.0113 168.674 34.9427C169.375 33.9892 169.806 32.8891 169.918 31.705ZM151.488 40.0193C151.244 42.5869 148.934 44.4747 146.338 44.2277C144.147 44.0191 142.406 42.35 142.11 40.1874C142.064 39.8072 141.839 39.4636 141.521 39.2453C140.27 38.4148 139.564 36.9918 139.702 35.5417C139.787 34.6504 140.179 33.8151 140.853 33.141C141.304 32.6871 141.369 31.9953 141.013 31.4647C140.491 30.6767 140.25 29.7813 140.335 28.8899C140.471 27.4664 141.391 26.2116 142.735 25.628C143.259 25.396 143.581 24.8628 143.527 24.2939C143.514 24.145 143.502 23.9828 143.517 23.8231C143.657 22.3597 144.981 21.2775 146.46 21.4183C147.2 21.4887 147.862 20.9476 147.931 20.2159C148.071 18.7525 149.395 17.6703 150.874 17.8111C152.353 17.9518 153.449 19.2643 153.31 20.7277L151.474 40.018L151.488 40.0193ZM165.918 35.5262C166.44 36.3142 166.681 37.2096 166.596 38.1009C166.457 39.5643 165.51 40.8167 164.112 41.3951C163.758 41.5493 163.472 41.8443 163.356 42.2091C162.656 44.2904 160.633 45.5879 158.441 45.3793C155.845 45.1324 153.933 42.8428 154.177 40.2752L156.013 20.9849C156.152 19.5215 157.476 18.4394 158.956 18.5801C160.435 18.7209 161.531 20.0334 161.392 21.4968C161.322 22.2285 161.87 22.8847 162.61 22.9551C164.089 23.0959 165.185 24.4084 165.046 25.8718C165.031 26.0314 164.989 26.1885 164.948 26.3323C164.787 26.8808 165.003 27.4651 165.474 27.7918C166.683 28.6318 167.351 30.0244 167.216 31.4478C167.13 32.3525 166.739 33.1745 166.064 33.8486C165.614 34.3025 165.548 34.9942 165.905 35.5249L165.918 35.5262Z" fill="#EA580C"/>
</g>
<g clip-path="url(#clip3_53_10)">
<path d="M50.2805 110.839C49.452 113.735 46.8845 115.783 43.89 115.937C42.701 115.996 42.6274 116.147 42.5733 116.258C42.0084 117.418 40.614 117.899 39.4539 117.335C38.2938 116.77 37.8127 115.375 38.3776 114.215C39.7138 111.471 42.4746 111.334 43.6532 111.274C44.4229 111.234 45.448 110.76 45.7943 109.553C46.051 108.658 45.6926 107.619 44.9418 107.077C44.3507 106.639 43.6553 106.505 42.9757 106.68C42.3033 106.846 41.7446 107.301 41.4412 107.924C40.8763 109.084 39.4819 109.565 38.3218 109C37.1617 108.435 36.6806 107.041 37.2455 105.881C38.1536 104.016 39.8299 102.657 41.8429 102.153C43.8558 101.649 45.9858 102.055 47.679 103.3C50.0018 104.979 51.0738 108.08 50.2805 110.839ZM38.4324 119.432C36.6954 118.587 34.5992 119.31 33.7534 121.047C32.9075 122.784 33.6308 124.88 35.3678 125.726C37.1049 126.572 39.2011 125.848 40.0469 124.111C40.8927 122.374 40.1694 120.278 38.4324 119.432ZM60.3775 122.333C57.7328 127.764 52.8694 131.793 47.0318 133.388C43.3024 134.406 40.4127 136.685 38.8947 139.802L38.3349 140.952C36.2561 145.221 31.0936 147.002 26.8244 144.923L25.5259 144.291C21.2568 142.212 19.4755 137.049 21.5543 132.78L21.7177 132.445C23.4196 128.95 23.4884 124.774 21.9094 120.688C19.4452 114.295 20.1985 107.322 23.9792 101.552C29.1855 93.5992 39.472 90.1372 48.4403 93.3156C54.104 95.3338 58.668 99.6532 60.9279 105.181C63.1921 110.711 62.9916 116.964 60.3765 122.335L60.3775 122.333ZM34.1392 138.908L34.4559 138.258L26.0603 134.17C26.0093 134.275 25.9624 134.382 25.9123 134.485L25.7489 134.82C24.7968 136.775 25.6148 139.141 27.5679 140.092L28.8664 140.724C30.8216 141.676 33.1871 140.858 34.1381 138.905L34.1392 138.908ZM56.1819 120.29C58.2157 116.113 58.3713 111.247 56.6115 106.946C55.0703 103.183 52.2832 100.224 48.6644 98.4622C48.0917 98.1833 47.4953 97.9318 46.8815 97.716C39.917 95.2459 31.9245 97.9356 27.8839 104.107C24.9372 108.602 24.3482 114.033 26.2632 119.006C27.6427 122.574 28.0359 126.228 27.4552 129.659L36.9961 134.305C39.2203 131.752 42.2788 129.846 45.8032 128.887C50.3443 127.646 54.1255 124.512 56.1819 120.29Z" fill="#EA580C"/>
</g>
<g clip-path="url(#clip4_53_10)">
<path d="M99.8933 277.028C100.155 273.233 98.32 269.701 95.2226 267.705L95.2963 267.522C95.7204 266.475 95.2143 265.28 94.1666 264.856C93.119 264.432 91.9245 264.938 91.5004 265.986L76.3168 259.84C76.7409 258.792 76.2348 257.598 75.1871 257.174C74.1395 256.75 72.945 257.256 72.5209 258.303L72.4472 258.486C68.8354 257.766 65.058 259.027 62.6062 261.935C54.9235 271.054 49.8699 281.52 48.9372 283.824C47.6135 287.094 49.1974 290.832 52.4675 292.156C57.277 294.102 65.0435 288.061 68.479 284.595C69.0888 283.978 69.9713 283.778 70.7305 284.086L78.6506 287.292C79.4079 287.598 79.9052 288.356 79.9142 289.223C79.969 294.103 81.3468 303.845 86.1562 305.792C89.4263 307.116 93.1643 305.532 94.488 302.262C95.4207 299.958 99.0698 288.923 99.8933 277.028ZM87.6927 301.996C85.8668 301.257 84.0746 295.027 84.009 289.176C83.9809 286.653 82.4818 284.425 80.1871 283.496L72.267 280.29C69.9724 279.361 67.3454 279.919 65.5704 281.712C61.4511 285.87 55.8318 289.1 54.0041 288.36C52.8273 287.883 52.2568 286.537 52.7331 285.36C53.6136 283.185 58.4029 273.28 65.7382 264.577C67.4679 262.525 70.2879 261.817 72.7552 262.816L91.989 270.602C94.4583 271.601 95.9922 274.071 95.8055 276.748C95.0219 288.102 91.5726 298.55 90.6921 300.725C90.2158 301.902 88.8694 302.473 87.6927 301.996ZM73.2212 272.945C72.585 274.516 70.7934 275.275 69.2218 274.639C67.6503 274.003 66.8912 272.212 67.5273 270.64C68.1634 269.069 69.9551 268.309 71.5266 268.945C73.0981 269.582 73.8573 271.373 73.2212 272.945ZM90.3027 279.859C89.6666 281.431 87.8749 282.19 86.3034 281.554C84.7319 280.917 83.9727 279.126 84.6089 277.554C85.245 275.983 87.0367 275.224 88.6082 275.86C90.1797 276.496 90.9388 278.288 90.3027 279.859Z" fill="#EA580C"/>
</g>
<g clip-path="url(#clip5_53_10)">
<path d="M91.4054 48.2179C89.5312 43.546 87.7687 39.1339 85.83 36.5794C81.8335 30.8857 75.3263 27.9353 68.3816 28.6804C59.8255 29.5815 52.8468 36.4784 51.8163 45.0439C51.202 50.05 52.5731 54.9628 55.6655 58.9199C56.1424 59.5326 56.4093 60.3099 56.3853 61.0953L56.1398 69.1378L78.3378 69.8155L78.4942 64.6928L82.3361 64.8101C84.8974 64.8883 87.1415 63.0426 87.5436 60.5083L88.4886 54.7432L92.4672 54.8646L92.5824 51.091C92.5824 51.091 91.7725 49.0666 91.4224 48.2184L91.4054 48.2179ZM85.5876 51.2364L84.1591 59.9606C84.0135 60.8107 83.2771 61.4206 82.4233 61.3945L75.1663 61.173L75.0099 66.2956L59.642 65.8265L59.7833 61.1991C59.8318 59.6111 59.3152 58.0571 58.3448 56.814C55.8281 53.5923 54.7036 49.5587 55.2049 45.455C56.0514 38.4392 61.7435 32.819 68.7565 32.076C74.4319 31.4801 79.776 33.8993 83.085 38.5979C84.777 40.8372 86.54 45.2322 88.2559 49.489C88.5104 50.1121 88.7477 50.7346 89.0027 51.3406L85.6047 51.2369L85.5876 51.2364ZM77.8457 39.4634C76.6606 37.9745 74.8586 37.0991 72.8902 37.1928C71.9673 36.0708 70.6035 35.3968 69.118 35.3514C67.6324 35.3061 66.1079 35.9774 65.0986 37.1259C62.4156 37.6763 60.4312 39.9744 60.3457 42.7747C60.341 42.9284 60.3369 43.065 60.3492 43.2192C59.2272 44.1421 58.5532 45.5059 58.5079 46.9915C58.4219 49.8089 60.6567 52.1844 63.4741 52.2704C64.0717 52.2887 64.6384 52.2034 65.1905 52.0323L64.8689 62.5678L68.284 62.672L68.6504 50.6681C69.9192 50.5359 71.081 49.9902 72.0136 49.1129L75.5311 49.2202C78.3486 49.3062 80.7241 47.0714 80.8101 44.254C80.8737 42.1708 79.6995 40.3233 77.8457 39.4634ZM75.6354 45.8052L70.4957 45.6483L69.9626 46.3156C69.4476 46.9494 68.7019 47.3026 67.8993 47.2781C67.6944 47.2719 67.4564 47.2304 67.1687 47.1362L65.7981 46.6842L65.1097 47.9621C64.8011 48.5509 64.2096 48.8917 63.5608 48.8719C62.6216 48.8433 61.8767 48.0514 61.9053 47.1123C61.9252 46.4634 62.3015 45.8938 62.908 45.6217L64.2255 45.0125L63.8579 43.6169C63.7814 43.324 63.754 43.101 63.7608 42.879C63.8009 41.5642 64.8247 40.5016 66.1602 40.4227L67.0507 40.3644L67.5187 39.5925C67.8427 39.0555 68.399 38.7477 69.0137 38.7665C69.6626 38.7863 70.2322 39.1626 70.5042 39.7691L71.1135 41.0867L72.5091 40.7191C72.802 40.6426 73.025 40.6152 73.247 40.622C74.0837 40.6475 74.8732 41.0989 75.3299 41.8136L75.6563 42.3192L76.2317 42.5077C76.9591 42.752 77.4345 43.416 77.4116 44.1673C77.3829 45.1065 76.5911 45.8514 75.6519 45.8228L75.6354 45.8052Z" fill="#EA580C"/>
</g>
<g clip-path="url(#clip6_53_10)">
<path d="M401.123 102.729L392.03 104.424L391.465 101.393L400.558 99.6979L401.123 102.729ZM415.046 101.702L416.741 110.796C417.113 112.805 416.672 114.88 415.517 116.566C414.361 118.251 412.584 119.409 410.575 119.786L389.357 123.741C387.348 124.113 385.273 123.672 383.587 122.517C381.902 121.361 380.744 119.584 380.367 117.575L378.672 108.482L384.734 107.352L384.452 105.836C384.058 103.71 384.231 101.518 384.952 99.4793C385.673 97.4407 386.917 95.6276 388.56 94.2217L388.254 92.5818C387.955 90.974 388.306 89.313 389.231 87.9642C390.156 86.6154 391.579 85.6893 393.187 85.3897C394.795 85.09 396.456 85.4413 397.804 86.3663C399.153 87.2913 400.079 88.7142 400.379 90.3221L400.685 91.9619C402.724 92.6816 404.538 93.9248 405.945 95.5667C407.352 97.2086 408.302 99.1916 408.701 101.317L408.983 102.832L415.046 101.702ZM391.36 92.4155C393.247 91.5139 395.337 91.1242 397.422 91.2856L397.348 90.887C397.198 90.0831 396.735 89.3716 396.061 88.9091C395.386 88.4466 394.556 88.271 393.752 88.4208C392.948 88.5706 392.236 89.0337 391.774 89.7081C391.311 90.3825 391.136 91.213 391.286 92.0169L391.36 92.4155ZM387.483 105.271L388.818 112.434C389.709 110.925 390.913 109.625 392.349 108.62C393.785 107.615 395.419 106.929 397.141 106.608C398.864 106.286 400.636 106.338 402.337 106.758C404.038 107.178 405.63 107.958 407.005 109.044L405.67 101.882C405.22 99.4699 403.831 97.3356 401.808 95.9481C399.785 94.5606 397.293 94.0336 394.882 94.4831C392.47 94.9326 390.336 96.3217 388.948 98.3449C387.561 100.368 387.034 102.86 387.483 105.271ZM387.225 120.713L385.299 110.383L382.268 110.948L383.398 117.01C383.577 117.946 384.04 118.805 384.725 119.468C385.41 120.13 386.283 120.565 387.225 120.713ZM390.308 120.427L408.495 117.037C408.045 114.626 406.656 112.491 404.633 111.104C402.61 109.716 400.118 109.189 397.706 109.639C395.295 110.088 393.16 111.477 391.773 113.501C390.385 115.524 389.858 118.015 390.308 120.427ZM412.58 105.298L409.548 105.863L411.474 116.194C412.299 115.717 412.957 114.996 413.357 114.131C413.757 113.266 413.88 112.299 413.709 111.361L412.58 105.298Z" fill="#EAB308"/>
</g>
<g clip-path="url(#clip7_53_10)">
<path d="M223.623 28.3714L226.074 29.7865C227.11 30.3852 228.434 30.07 229.09 29.0687L237.022 16.9821L235.652 11.8704L236.561 10.2976L235.258 9.54533L234.35 11.1182L229.238 12.4879L222.736 25.4009C222.197 26.4689 222.587 27.7734 223.623 28.3714ZM235.218 16.0635L230.935 13.5908L234.313 12.6857L235.218 16.0635ZM224.079 26.0776L229.817 14.6825L234.832 17.5776L227.831 28.2438C227.613 28.5773 227.172 28.6831 226.826 28.4836L224.375 27.0685C224.03 26.869 223.9 26.4334 224.079 26.0776Z" fill="#EAB308"/>
</g>
<g clip-path="url(#clip8_53_10)">
<path d="M164.691 276.967C164.955 275.811 165.989 275.073 166.026 275.047C166.418 274.78 166.616 274.308 166.529 273.842C166.442 273.374 166.086 273.001 165.621 272.895L160.972 271.833C162.741 270.68 164.103 268.824 164.624 266.546C165.63 262.146 163.129 257.8 159.031 256.709C159.861 256.7 160.804 256.55 161.646 256.042C162.871 255.302 163.624 253.959 164.033 252.986C164.295 252.369 163.883 251.662 163.205 251.586C162.199 251.472 160.754 251.49 159.557 252.212C158.477 252.864 157.793 253.98 157.383 254.901C157.583 253.008 157.316 251.667 157.063 250.766C156.884 250.132 156.226 249.762 155.59 249.941C154.956 250.12 154.586 250.779 154.766 251.412C155.006 252.267 155.259 253.637 154.84 255.737L153.254 255.375C149.003 254.403 144.708 257.268 143.681 261.76C143.161 264.039 143.581 266.302 144.674 268.109L142.933 267.711C140.688 267.198 138.444 268.607 137.93 270.852C137.417 273.098 138.826 275.342 141.072 275.855L163.76 281.041C164.22 281.146 164.699 280.965 164.981 280.585C165.264 280.206 165.293 279.692 165.059 279.28C165.052 279.268 164.423 278.139 164.691 276.967ZM152.722 257.701L158.243 258.963C161.212 259.641 163.03 262.804 162.296 266.014C161.562 269.224 158.689 271.291 155.731 270.635C155.178 270.503 154.578 270.273 154.132 269.942C153.778 269.679 153.375 269.495 152.953 269.399C152.53 269.302 152.091 269.317 151.654 269.376C151.016 269.462 149.76 269.283 149.913 269.305C146.964 268.611 145.276 265.489 146.007 262.291C146.738 259.093 149.754 257.022 152.722 257.701ZM162.277 278.252L141.604 273.527C140.642 273.307 140.038 272.345 140.258 271.383C140.478 270.421 141.44 269.817 142.402 270.037L163.074 274.762C162.775 275.229 162.512 275.787 162.364 276.436C162.216 277.084 162.21 277.701 162.277 278.252Z" fill="#EA580C"/>
</g>
<g clip-path="url(#clip9_53_10)">
<path d="M245.68 301.754L234.392 293.976C231.96 291.938 228.617 291.373 225.65 292.499L212.348 296.415C212.298 296.431 212.246 296.448 212.197 296.468C208.996 297.675 207.379 301.248 208.586 304.449C208.995 305.534 209.701 306.483 210.623 307.187L213.771 309.357L212.471 317.477C211.891 321.108 213.74 324.694 217.034 326.329C219.335 327.413 221.782 328.155 224.297 328.532C226.804 328.962 229.36 329.024 231.884 328.716C235.524 328.192 238.4 325.363 238.984 321.732L240.286 313.6L243.854 312.547L241.665 326.215C241.518 327.13 242.141 327.991 243.056 328.138C243.972 328.284 244.832 327.661 244.979 326.746L248.164 306.86C248.487 304.916 247.238 302.872 245.68 301.754ZM235.669 321.201C235.322 323.373 233.605 325.068 231.429 325.388C229.232 325.652 227.009 325.594 224.828 325.218C222.639 324.895 220.508 324.254 218.504 323.318C216.536 322.334 215.435 320.188 215.784 318.016L216.833 311.467L221.91 314.966C223.137 315.988 224.618 316.66 226.196 316.908C227.696 317.159 229.236 316.998 230.651 316.442L236.718 314.652L235.669 321.201ZM243.013 309.307L229.56 313.271C227.654 314.006 225.499 313.632 223.954 312.296L212.658 304.521C211.412 303.568 211.176 301.786 212.129 300.54C212.451 300.119 212.885 299.797 213.381 299.61L226.752 295.667C228.657 294.933 230.811 295.308 232.358 296.641L243.645 304.42C244.464 305.063 244.875 306.095 244.722 307.125C244.568 308.099 243.922 308.924 243.013 309.307Z" fill="#2563EB"/>
</g>
<g clip-path="url(#clip10_53_10)">
<path d="M355.664 281.515L353.742 272.435L355.006 272.168L353.937 267.113L351.409 267.648L351.944 270.175L349.417 270.71L348.882 268.183L346.354 268.717L346.889 271.245L344.362 271.78L343.827 269.252L341.3 269.787L342.369 274.842L343.633 274.574L345.244 282.189C346.67 282.847 347.807 284.003 348.44 285.44L354.86 284.081C355.028 284.034 355.203 284.024 355.375 284.049C355.547 284.075 355.712 284.136 355.859 284.23C356.006 284.323 356.131 284.446 356.227 284.592C356.323 284.737 356.388 284.9 356.416 285.072L356.684 286.336L349.102 287.94L349.636 290.468L359.746 288.328L358.944 284.537C358.787 283.751 358.386 283.035 357.796 282.492C357.207 281.948 356.46 281.606 355.664 281.515ZM346.16 274.04L351.215 272.97L353.087 281.816L348.032 282.885L346.16 274.04ZM342.718 284.159C340.772 280.657 339.216 276.951 338.079 273.109L339.307 272.849L338.772 270.322L338.305 270.421L339.224 266.808C339.272 266.439 339.232 266.064 339.105 265.714C338.979 265.363 338.77 265.049 338.497 264.796C338.223 264.543 337.893 264.36 337.534 264.262C337.175 264.163 336.798 264.152 336.434 264.23L333.66 264.817L333.125 262.289L330.598 262.824L331.132 265.352L328.352 265.94C327.988 266.016 327.647 266.179 327.359 266.415C327.071 266.65 326.843 266.951 326.696 267.293C326.548 267.635 326.485 268.007 326.511 268.378C326.537 268.75 326.652 269.109 326.846 269.427L329.157 272.356L328.663 272.461L329.198 274.988L330.426 274.728C330.947 278.701 331.026 282.72 330.661 286.71C329.901 287.094 329.289 287.718 328.919 288.486C328.549 289.253 328.442 290.121 328.615 290.955L329.417 294.746L347.109 291.002L346.307 287.211C346.127 286.379 345.678 285.629 345.03 285.077C344.381 284.525 343.568 284.203 342.718 284.159ZM329.303 268.378L336.556 266.843L335.487 271.017L331.974 271.76L329.303 268.378ZM335.548 273.645C336.635 277.441 338.13 281.109 340.009 284.583L333.31 286C333.624 282.063 333.506 278.104 332.958 274.193L335.548 273.645ZM344.047 289.01L331.41 291.684L331.143 290.42C331.072 290.085 331.137 289.735 331.324 289.448C331.51 289.161 331.804 288.96 332.139 288.889L342.248 286.75C342.583 286.679 342.933 286.744 343.22 286.931C343.507 287.118 343.708 287.411 343.779 287.746L344.047 289.01Z" fill="#2563EB"/>
</g>
<g clip-path="url(#clip11_53_10)">
<path d="M397.365 246.596C396.871 246.766 396.462 247.118 396.228 247.573C395.994 248.027 395.954 248.549 396.118 249.021C396.281 249.494 396.634 249.88 397.098 250.094C397.563 250.307 398.102 250.332 398.596 250.161L400.458 249.518C400.952 249.347 401.361 248.996 401.595 248.541C401.829 248.086 401.868 247.565 401.705 247.092C401.542 246.619 401.189 246.234 400.724 246.02C400.26 245.806 399.721 245.782 399.227 245.953L397.365 246.596ZM399.859 241.744C400.353 241.573 400.761 241.222 400.995 240.767C401.229 240.312 401.269 239.791 401.106 239.318L400.49 237.536L404.215 236.249L404.831 238.032C404.994 238.505 405.347 238.89 405.811 239.104C406.276 239.318 406.815 239.342 407.309 239.172C407.803 239.001 408.212 238.65 408.445 238.195C408.679 237.74 408.719 237.219 408.556 236.746L406.094 229.615C405.604 228.197 404.545 227.04 403.151 226.398C401.757 225.757 400.141 225.685 398.659 226.196C397.177 226.708 395.951 227.762 395.249 229.127C394.548 230.492 394.429 232.055 394.918 233.474L397.38 240.604C397.544 241.077 397.897 241.463 398.361 241.677C398.826 241.89 399.365 241.915 399.859 241.744ZM399.259 233.97L398.643 232.187C398.48 231.715 398.52 231.193 398.754 230.739C398.988 230.284 399.396 229.932 399.89 229.762C400.384 229.591 400.923 229.615 401.388 229.829C401.852 230.043 402.205 230.428 402.368 230.901L402.984 232.684L399.259 233.97ZM405.708 242.318L409.714 244.187C409.826 244.239 409.955 244.247 410.076 244.209C410.196 244.171 410.298 244.091 410.361 243.984L411.114 242.447C411.343 241.988 411.748 241.632 412.241 241.455C412.734 241.278 413.274 241.296 413.743 241.505C414.211 241.714 414.57 242.096 414.739 242.568C414.909 243.039 414.875 243.562 414.647 244.02L413.877 245.571C413.35 246.595 412.428 247.386 411.316 247.77C410.203 248.154 408.99 248.1 407.943 247.62L403.921 245.728C403.495 245.492 403.182 245.106 403.045 244.647C402.909 244.189 402.959 243.692 403.186 243.259C403.413 242.825 403.8 242.487 404.268 242.312C404.737 242.138 405.251 242.14 405.708 242.318ZM381.685 231.373L389.283 253.377C390.102 255.739 391.866 257.665 394.189 258.733C396.512 259.802 399.203 259.924 401.673 259.075L416.574 253.93C419.042 253.074 421.084 251.317 422.253 249.043C423.422 246.769 423.622 244.165 422.809 241.801L414.191 216.843C413.372 214.481 411.608 212.554 409.285 211.486C406.962 210.418 404.271 210.295 401.801 211.145L389.987 215.224C388.762 215.644 387.629 216.291 386.653 217.13C385.678 217.969 384.879 218.981 384.302 220.11L382.237 224.127C381.655 225.252 381.306 226.472 381.211 227.716C381.117 228.96 381.278 230.203 381.685 231.373ZM387.806 221.721C387.984 221.378 388.196 221.051 388.439 220.747L389.978 225.203L385.322 226.811C385.426 226.442 385.567 226.082 385.743 225.738L387.806 221.721ZM385.621 230.698L391.209 228.769C392.197 228.428 393.015 227.725 393.483 226.815C393.95 225.905 394.03 224.863 393.703 223.917L391.857 218.569L403.032 214.71C404.514 214.199 406.129 214.271 407.524 214.912C408.918 215.554 409.976 216.711 410.466 218.129L419.084 243.087C419.573 244.505 419.454 246.069 418.753 247.434C418.051 248.798 416.825 249.853 415.343 250.364L400.442 255.509C398.96 256.021 397.345 255.948 395.95 255.307C394.556 254.666 393.498 253.509 393.008 252.09L385.621 230.698Z" fill="#2563EB"/>
</g>
<g clip-path="url(#clip12_53_10)">
<path d="M424.864 167.064C424.898 166.566 424.779 166.061 424.47 165.643L421.454 161.567C420.797 160.68 419.791 160.096 418.693 159.964L413.686 159.364C412.851 159.259 412.01 159.674 411.578 160.413C411.147 161.152 411.194 162.075 411.699 162.765L412.624 164.028L411.027 166.545C410.466 167.507 410.517 168.718 411.155 169.628C411.711 170.421 412.454 171.092 413.366 171.623C414.279 172.154 415.437 172.481 416.4 172.573C417.431 172.596 418.409 172.055 418.913 171.188L420.425 168.809C420.425 168.809 422.536 169.056 422.559 169.058L422.491 172.136C422.477 172.768 422.977 173.291 423.61 173.305C424.242 173.319 424.765 172.818 424.779 172.187C424.779 172.187 424.87 167.109 424.865 167.065L424.864 167.064ZM416.959 169.999C416.844 170.196 416.645 170.305 416.409 170.284C415.777 170.224 415.141 170.009 414.516 169.646C413.893 169.283 413.392 168.835 413.027 168.314C412.898 168.131 412.889 167.894 412.98 167.734L414.074 166.011L414.681 166.839C415.34 167.737 416.351 168.328 417.456 168.459L417.903 168.512L416.959 170.001L416.959 169.999ZM417.726 166.185C417.249 166.129 416.811 165.874 416.527 165.486L413.736 161.675L418.421 162.233C418.895 162.29 419.33 162.543 419.613 162.926L422.437 166.742L417.726 166.185ZM419.001 174.326C418.456 174.004 417.756 174.181 417.432 174.726C416.709 175.945 415.199 176.693 413.123 176.915C413.443 176.679 413.761 176.423 414.064 176.129C414.517 175.689 414.529 174.965 414.088 174.511C413.649 174.059 412.924 174.046 412.47 174.487C412.212 174.738 411.945 174.961 411.676 175.152C410.506 175.981 409.789 177.333 409.758 178.768L409.671 182.723C409.656 183.393 409.781 183.959 409.984 184.447L407.008 184.381C407.222 183.913 407.368 183.373 407.382 182.724L407.469 178.766C407.501 177.333 406.847 175.953 405.721 175.076C404.078 173.797 402.822 171.492 401.884 168.03C401.753 167.545 401.858 167.035 402.173 166.634C402.501 166.215 402.992 165.983 403.522 165.995L403.528 165.995C404.714 166.024 406.206 166.054 407.748 166.092C408.38 166.105 408.903 165.604 408.917 164.973C408.931 164.342 408.43 163.818 407.798 163.804C406.248 163.77 404.767 163.737 403.584 163.708L403.571 163.708C402.314 163.68 401.15 164.231 400.372 165.221C399.606 166.197 399.351 167.439 399.675 168.629C399.747 168.895 399.826 169.141 399.902 169.394C398.439 169.782 397.338 171.085 397.303 172.672C397.241 175.475 399.292 178.77 405.172 179.118L405.093 182.674C405.061 184.147 403.849 184.301 403.341 184.3L402.769 184.288C402.137 184.274 401.614 184.775 401.6 185.406C401.586 186.038 402.086 186.561 402.719 186.575L414.157 186.827C414.789 186.841 415.312 186.34 415.326 185.708C415.34 185.077 414.84 184.553 414.207 184.539C414.207 184.539 413.677 184.529 413.594 184.526C413.091 184.505 411.925 184.246 411.957 182.773L412.034 179.274C416.71 179.202 418.652 177.151 419.399 175.894C419.721 175.35 419.544 174.649 419.001 174.326ZM399.592 172.723C399.605 172.118 400.073 171.648 400.658 171.582C401.578 173.867 402.727 175.56 404.13 176.719C400.77 176.199 399.555 174.399 399.592 172.723ZM416.401 172.572C416.331 172.571 416.47 172.578 416.401 172.572V172.572Z" fill="#EAB308"/>
</g>
<g clip-path="url(#clip13_53_10)">
<path d="M312.84 20.2441C303.003 20.9301 295.558 29.4909 296.244 39.3281C296.93 49.1653 305.491 56.6099 315.328 55.9239C325.165 55.2379 332.61 46.6771 331.924 36.8399C331.238 27.0027 322.677 19.5581 312.84 20.2441ZM315.121 52.9506C306.923 53.5223 299.789 47.3182 299.217 39.1208C299.063 36.8997 299.406 34.7574 300.151 32.8007L303.47 35.8364L307.93 35.5254L309.52 36.9084L309.728 39.8817L312.908 42.6477L313.323 48.5943L316.296 48.3869L320.082 38.4126L313.877 35.1107L310.16 35.3699L307.775 33.2954L309.849 30.9099L312.926 32.1892L314.309 30.5989L311.82 27.0377C311.82 27.0377 312.798 25.2546 313.965 23.1833C318.85 23.1414 323.276 25.4919 326.038 29.1923L322.589 31.5153L324.491 37.3583L328.945 39.1959C328.407 46.4563 322.591 52.4296 315.121 52.9506Z" fill="#EAB308"/>
</g>
<g clip-path="url(#clip14_53_10)">
<path d="M411.038 19.9333L408.161 21.4111C408.675 20.1092 408.896 18.7116 408.809 17.3174C408.722 15.9231 408.327 14.5664 407.654 13.3435C407.43 12.9066 407.04 12.5771 406.571 12.4276C406.102 12.2781 405.592 12.3208 405.153 12.5463C404.713 12.7719 404.381 13.1617 404.229 13.6301C404.078 14.0985 404.118 14.6071 404.343 15.0441C406.561 19.3637 403.403 22.8756 400.681 24.921C400.784 22.4113 400.339 19.9114 399.375 17.595C398.702 16.2842 397.533 15.2958 396.126 14.8473C394.718 14.3989 393.187 14.527 391.87 15.2035C390.552 15.8801 389.556 17.0496 389.101 18.4548C388.645 19.8601 388.767 21.3859 389.44 22.6967C390.761 24.8296 392.534 26.6483 394.634 28.0263C391.385 29.047 386.691 29.5672 384.473 25.2476C384.249 24.8107 383.859 24.4812 383.39 24.3317C382.921 24.1822 382.41 24.2249 381.971 24.4505C381.532 24.676 381.2 25.0658 381.048 25.5342C380.896 26.0026 380.937 26.5113 381.161 26.9482C381.763 28.2077 382.636 29.3185 383.718 30.202C384.8 31.0854 386.065 31.7198 387.423 32.0602L384.545 33.538C382.789 34.44 381.46 35.9994 380.853 37.8731C380.246 39.7467 380.408 41.7812 381.306 43.5289L382.152 45.1763C382.601 46.0502 383.38 46.7091 384.318 47.0081C385.257 47.3071 386.277 47.2217 387.156 46.7706L391.385 55.0079C392.51 57.1903 394.458 58.8356 396.803 59.5828C399.148 60.33 401.698 60.1181 403.895 58.9936L420.453 50.4907C422.646 49.3609 424.305 47.4116 425.064 45.0704C425.823 42.7292 425.621 40.1872 424.502 38.002L420.272 29.7648C421.15 29.3137 421.814 28.534 422.118 27.5972C422.422 26.6604 422.34 25.6431 421.892 24.7693L421.046 23.1218C420.148 21.3741 418.59 20.0563 416.713 19.4584C414.836 18.8604 412.795 19.0312 411.038 19.9333ZM393.562 18.4984C394.001 18.2729 394.511 18.2302 394.98 18.3797C395.45 18.5292 395.839 18.8586 396.064 19.2955C396.763 21.1491 397.067 23.1291 396.957 25.1096C395.283 24.0453 393.851 22.6444 392.752 20.9961C392.528 20.5592 392.487 20.0506 392.639 19.5822C392.791 19.1138 393.123 18.7239 393.562 18.4984ZM384.618 41.8283C384.169 40.9545 384.087 39.9372 384.391 39.0004C384.695 38.0636 385.359 37.2839 386.237 36.8328L397.828 30.8808L400.366 35.8231L385.464 43.4758L384.618 41.8283ZM394.697 53.3073L390.467 45.0701L402.058 39.118L408.826 52.2975L402.203 55.6987C400.885 56.3752 399.354 56.5034 397.947 56.0549C396.539 55.6064 395.37 54.618 394.697 53.3073ZM421.19 39.7026C421.863 41.0133 421.986 42.5392 421.53 43.9444C421.074 45.3497 420.078 46.5192 418.761 47.1958L412.137 50.5969L405.37 37.4174L416.96 31.4653L421.19 39.7026ZM403.678 34.1225L401.14 29.1802L412.73 23.2281C413.609 22.7771 414.629 22.6917 415.568 22.9907C416.506 23.2897 417.285 23.9486 417.734 24.8224L418.58 26.4699L403.678 34.1225Z" fill="#EAB308"/>
</g>
<g filter="url(#filter0_d_53_10)">
<path d="M375.508 148.794C348.256 80.3127 337.174 81.3752 286.27 55.9304C270.957 46.7392 251.379 42.451 234.691 49.5417C220.085 41.1876 206.467 54.9567 194.299 54.3594C150.568 43.5407 53.0506 130.336 72.5448 173.076C72.7041 186.312 73.6514 188.693 77.7817 193.295C78.0202 198.422 79.7852 202.06 82.7487 204.586C89.0531 224.578 96.4332 227.788 112.989 226.458C115.018 233.123 129.389 230.243 149.352 227.941C155.961 233.244 161.813 234.647 174.955 235.17C190.914 237.72 195.56 234.235 201.67 225.532C207.808 222.184 211.677 222.253 219.11 224.79C226.291 237.876 231.331 243.3 242.486 248.887C246.835 250.899 248.581 252.174 250.835 254.633C262.309 264.017 268.631 269.528 279.035 281.324C289.322 294.918 293.979 295.732 301.483 292.26C311.907 283.709 295.479 268.87 290.908 258.154C297.967 254.937 299.58 250.691 301.483 243.326C327.618 248.912 336.902 244.865 346.751 228.683C362.535 230.983 366.915 222.506 374.209 206.255C386.272 189.339 375.792 177.559 375.508 160.101C376.04 156.23 376.829 152.55 375.508 148.794Z" fill="#2563EB" stroke="black" stroke-width="4"/>
<path opacity="0.5" d="M374.209 206.255C366.915 222.506 362.535 230.983 346.751 228.683C336.902 244.865 327.618 248.912 301.483 243.326C299.58 250.691 297.967 254.937 290.908 258.154M374.209 206.255C386.272 189.34 375.792 177.559 375.508 160.101C376.04 156.23 376.829 152.55 375.508 148.794C348.256 80.3127 337.174 81.3753 286.27 55.9305C270.957 46.7392 251.164 45.0076 234.476 52.0984M374.209 206.255C363.303 216.742 356.892 222.05 334.651 210.656M290.908 258.154C295.479 268.87 311.907 283.709 301.483 292.26C293.979 295.732 289.322 294.918 279.035 281.324C268.631 269.528 262.309 264.017 250.835 254.633C248.581 252.174 246.835 250.899 242.486 248.887C236.314 245.795 232.014 242.754 228.187 238.437M290.908 258.154C275.229 260.834 265.981 256.288 248.69 236.758M194.299 54.3594C206.467 54.9567 219.87 43.7443 234.476 52.0984M194.299 54.3594C189.127 53.0799 184.389 63.6175 187.773 73.7815M194.299 54.3594C177.614 50.2317 153.099 60.314 130.24 76.7377M234.476 52.0984C234.476 52.0984 235.153 60.9071 241.245 68.3607C247.336 75.8142 256.135 79.2022 256.135 79.2022M256.135 79.2022C284.859 70.7621 311.638 90.7213 293.362 113.76M256.135 79.2022C245.097 84.3022 237.886 85.845 222.969 85.9782M293.362 113.76C326.528 109.016 346.834 124.601 336.681 155.771C331.913 169.435 338.277 176.094 356.987 186.94M293.362 113.76L278.472 119.18M222.969 85.9782C219.925 79.7663 217.15 77.1876 210.786 73.7815M222.969 85.9782C226.233 101.227 216.002 111.795 193.188 111.379M174.236 109.016C181.295 110.52 187.616 111.277 193.188 111.379M193.188 111.379C194.559 125.876 198.251 130.799 214.17 129.344M130.24 76.7377C115.041 87.6582 100.574 101.383 89.6288 115.597M130.24 76.7377C141.282 79.8185 141.027 92.5016 151.223 98.1749M151.223 98.1749C160.997 82.686 170.476 81.2457 191.157 87.3334M151.223 98.1749C144.893 107.78 149.869 116.47 166.114 140.863M166.114 140.863C171.735 143.442 171.796 148.523 167.467 162.791M166.114 140.863C151.237 131.014 128.069 163.345 109.614 148.995M100.459 139.508C103.866 143.615 106.71 146.736 109.614 148.995M109.614 148.995C96.3974 161.191 105.197 188.295 124.148 179.486M334.651 210.656C317.55 218.373 307.911 223.462 297.424 220.142M334.651 210.656C324.109 200.103 319.974 184.817 302.162 189.65M297.424 220.142C273.057 216.754 260.873 186.94 286.594 168.645M297.424 220.142C282.208 230.444 268.931 234.499 248.69 236.758M228.187 238.437C225.098 234.952 222.317 230.635 219.11 224.79C211.677 222.253 207.808 222.184 201.67 225.532C195.56 234.235 190.914 237.72 174.955 235.17C161.813 234.647 155.961 233.244 149.352 227.941C143.59 228.606 138.293 229.318 133.624 229.836M228.187 238.437C235.821 237.959 242.574 237.441 248.69 236.758M228.187 238.437C248.328 219.496 254.898 196.922 249.646 182.874M222.293 170C236.696 167.504 246.008 173.143 249.646 182.874M249.646 182.874C247.667 168.622 248.373 163.252 253.428 159.158M274.41 96.1421C252.045 109.298 245.036 117.334 254.105 134.765M254.105 134.765C237.86 136.245 229.109 140.449 212.14 153.06M254.105 134.765C278.555 132.538 308.06 169.103 317.052 163.224M212.14 153.06C190.216 170.855 191.116 200.075 216.201 196.169M212.14 153.06C197.245 144.023 180.153 150.337 167.467 162.791M228.384 192.361C223.831 194.387 219.771 195.613 216.201 196.169M216.201 196.169C231.769 209.301 204.017 231.661 187.096 212.011M187.096 212.011C174.743 221.706 168.521 223.877 159.345 218.787M187.096 212.011C181.699 194.856 172.916 189.917 152.576 184.907M152.576 184.907C132.19 189.43 126.913 198.133 133.624 229.836M152.576 184.907C155.891 176.768 161.129 169.013 167.467 162.791M133.624 229.836C122.121 231.11 114.432 231.199 112.989 226.458C96.4332 227.789 89.0531 224.578 82.7487 204.586C79.7852 202.06 78.0202 198.422 77.7817 193.295C73.6514 188.693 72.7041 186.312 72.5448 173.076C65.4341 157.486 73.8918 136.035 89.6288 115.597M89.6288 115.597C102.798 109.317 110.179 105.872 122.795 122.568" stroke="black"/>
<path d="M298.973 129.998C298.973 148.733 283.791 163.92 265.063 163.92C246.335 163.92 231.153 148.733 231.153 129.998C231.153 111.264 246.335 96.0765 265.063 96.0765C283.791 96.0765 298.973 111.264 298.973 129.998Z" fill="white" stroke="black" stroke-width="2"/>
<path d="M278.71 129.998C278.71 137.362 272.6 143.332 265.063 143.332C257.526 143.332 251.416 137.362 251.416 129.998C251.416 122.634 257.526 116.665 265.063 116.665C272.6 116.665 278.71 122.634 278.71 129.998Z" fill="black"/>
<ellipse cx="270.776" cy="125.236" rx="3.80836" ry="3.80966" fill="white"/>
<path d="M218.997 130.951C218.997 149.686 203.815 164.873 185.087 164.873C166.36 164.873 151.177 149.686 151.177 130.951C151.177 112.216 166.36 97.0289 185.087 97.0289C203.815 97.0289 218.997 112.216 218.997 130.951Z" fill="white" stroke="black" stroke-width="2"/>
<path d="M198.734 130.951C198.734 138.315 192.624 144.285 185.087 144.285C177.551 144.285 171.441 138.315 171.441 130.951C171.441 123.587 177.551 117.617 185.087 117.617C192.624 117.617 198.734 123.587 198.734 130.951Z" fill="black"/>
<ellipse cx="190.8" cy="126.189" rx="3.80836" ry="3.80966" fill="white"/>
<path d="M289.887 185.184C246.827 202.947 213.703 205.513 174.004 193.291C185.659 208.472 200.08 216.732 219.458 217.58C241.36 218.539 271.338 204.453 289.887 185.184Z" fill="white"/>
<path d="M277.75 226.877C283.433 215.279 288.721 200.8 294.715 183.147C293.091 183.847 291.482 184.526 289.887 185.184C271.338 204.453 241.36 218.539 219.458 217.58C200.08 216.732 185.659 208.472 174.004 193.291C168.854 191.706 163.594 189.872 158.186 187.789C168.499 218.069 177.357 238.346 190.321 250.333C201.063 237.146 205.802 228.786 235.052 229.533C244.211 222.995 255.932 222.125 277.75 226.877Z" fill="#630500"/>
<path d="M277.75 226.877C255.932 222.125 244.211 222.995 235.052 229.533C205.802 228.786 201.063 237.146 190.321 250.333C220.839 278.551 261.522 259.998 277.75 226.877Z" fill="#7C0600"/>
<path d="M277.75 226.877C255.932 222.125 244.211 222.995 235.052 229.533C205.802 228.786 201.063 237.146 190.321 250.333C220.839 278.551 261.522 259.998 277.75 226.877Z" fill="#FF6F73"/>
<path d="M132.379 176.575C141.405 180.884 149.965 184.623 158.186 187.789M326.35 167.942C315.134 173.796 304.653 178.863 294.715 183.147M319.856 160.97C325.521 165.538 327.992 169.131 331.012 177.571M129.049 184.046C131.034 177.669 133.122 174.467 138.207 169.271M158.186 187.789C168.499 218.069 177.357 238.346 190.321 250.333M158.186 187.789C163.594 189.872 168.854 191.706 174.004 193.291M294.715 183.147C288.721 200.8 283.433 215.279 277.75 226.877M294.715 183.147C293.091 183.847 291.482 184.526 289.887 185.184M223.787 241.486C227.474 236.398 231.014 232.415 235.052 229.533M277.75 226.877C255.932 222.125 244.211 222.995 235.052 229.533M277.75 226.877C261.522 259.998 220.839 278.551 190.321 250.333M190.321 250.333C201.063 237.146 205.802 228.786 235.052 229.533M174.004 193.291C213.703 205.513 246.827 202.947 289.887 185.184M174.004 193.291C185.659 208.472 200.08 216.732 219.458 217.58C241.36 218.539 271.338 204.453 289.887 185.184" stroke="black" stroke-width="4"/>
</g>
<defs>
<filter id="filter0_d_53_10" x="62.9987" y="38.9985" width="334.001" height="272.002" filterUnits="userSpaceOnUse" color-interpolation-filters="sRGB">
<feFlood flood-opacity="0" result="BackgroundImageFix"/>
<feColorMatrix in="SourceAlpha" type="matrix" values="0 0 0 0 0 0 0 0 0 0 0 0 0 0 0 0 0 0 127 0" result="hardAlpha"/>
<feOffset dx="5" dy="5"/>
<feGaussianBlur stdDeviation="5"/>
<feComposite in2="hardAlpha" operator="out"/>
<feColorMatrix type="matrix" values="0 0 0 0 0 0 0 0 0 0 0 0 0 0 0 0 0 0 0.25 0"/>
<feBlend mode="normal" in2="BackgroundImageFix" result="effect1_dropShadow_53_10"/>
<feBlend mode="normal" in="SourceGraphic" in2="effect1_dropShadow_53_10" result="shape"/>
</filter>
<clipPath id="clip0_53_10">
<rect width="23.7305" height="23.7305" fill="white" transform="translate(376 303.209) rotate(-15.1676)"/>
</clipPath>
<clipPath id="clip1_53_10">
<rect width="31" height="31" fill="white" transform="translate(20.9031 188) rotate(10.9773)"/>
</clipPath>
<clipPath id="clip2_53_10">
<rect width="32.4184" height="32.073" fill="white" transform="translate(139.038 14) rotate(5.43586)"/>
</clipPath>
<clipPath id="clip3_53_10">
<rect width="56" height="56" fill="white" transform="translate(25.5166 82) rotate(25.9634)"/>
</clipPath>
<clipPath id="clip4_53_10">
<rect width="49.141" height="49.141" fill="white" transform="translate(63.438 248) rotate(22.0371)"/>
</clipPath>
<clipPath id="clip5_53_10">
<rect width="41" height="41" fill="white" transform="translate(52.251 28) rotate(1.74847)"/>
</clipPath>
<clipPath id="clip6_53_10">
<rect width="37" height="37" fill="white" transform="translate(375 88.7793) rotate(-10.5576)"/>
</clipPath>
<clipPath id="clip7_53_10">
<rect width="18.0563" height="18.0563" fill="white" transform="translate(241.114 26.441) rotate(165)"/>
</clipPath>
<clipPath id="clip8_53_10">
<rect width="28.6434" height="28.6434" fill="white" transform="translate(143.382 247) rotate(12.8745)"/>
</clipPath>
<clipPath id="clip9_53_10">
<rect width="40.2781" height="40.2781" fill="white" transform="translate(210.516 287.233) rotate(9.10017)"/>
</clipPath>
<clipPath id="clip10_53_10">
<rect width="31" height="31" fill="white" transform="translate(323 264.417) rotate(-11.9472)"/>
</clipPath>
<clipPath id="clip11_53_10">
<rect width="47.2907" height="45.2634" fill="white" transform="matrix(-0.945239 0.326378 0.326378 0.945239 416.701 206)"/>
</clipPath>
<clipPath id="clip12_53_10">
<rect width="27.4573" height="27.4573" fill="white" transform="translate(397.604 159) rotate(1.26019)"/>
</clipPath>
<clipPath id="clip13_53_10">
<rect width="35.7665" height="35.7665" fill="white" transform="translate(295 21.4882) rotate(-3.9892)"/>
</clipPath>
<clipPath id="clip14_53_10">
<rect width="44.6731" height="44.4471" fill="white" transform="translate(372 25.407) rotate(-27.1813)"/>
</clipPath>
</defs>
</svg>
