<svg width="2143" height="500" viewBox="0 0 2143 500" fill="none" xmlns="http://www.w3.org/2000/svg">
<g clip-path="url(#clip0_3_49)">
<rect x="12.5" y="45.5" width="325" height="422" rx="37.5" fill="#FEF6DF" stroke="#389472" stroke-width="25"/>
<path d="M151.429 266.695H188.571" stroke="#389472" stroke-width="10" stroke-linecap="round"/>
<path d="M48.5714 191.41H117.143" stroke="#389472" stroke-width="10" stroke-linecap="round"/>
<path d="M150 191.41H188.571" stroke="#389472" stroke-width="10" stroke-linecap="round"/>
<path d="M217.143 191.41H300" stroke="#389472" stroke-width="10" stroke-linecap="round"/>
<path d="M48.5714 229.053H158.571" stroke="#389472" stroke-width="10" stroke-linecap="round"/>
<path d="M190 229.053H300" stroke="#389472" stroke-width="10" stroke-linecap="round"/>
<path d="M48.5714 266.695H121.429" stroke="#389472" stroke-width="10" stroke-linecap="round"/>
<path d="M48.5714 304.337H217.143" stroke="#389472" stroke-width="10" stroke-linecap="round"/>
<path d="M158.571 341.979L300 341.979" stroke="#389472" stroke-width="10" stroke-linecap="round"/>
<path d="M48.5714 379.621H121.429" stroke="#389472" stroke-width="10" stroke-linecap="round"/>
<path d="M150 379.621H190" stroke="#389472" stroke-width="10" stroke-linecap="round"/>
<path d="M220 379.621H301.429" stroke="#389472" stroke-width="10" stroke-linecap="round"/>
<path d="M48.5714 341.979H127.143" stroke="#389472" stroke-width="10" stroke-linecap="round"/>
<path d="M245.714 304.337H301.429" stroke="#389472" stroke-width="10" stroke-linecap="round"/>
<path d="M222.857 266.695H300" stroke="#389472" stroke-width="10" stroke-linecap="round"/>
<path d="M121.485 108.065L151.513 142.967" stroke="#389472" stroke-width="10" stroke-linecap="round"/>
<path d="M213.617 93.0808L151.639 143.118" stroke="#389472" stroke-width="10" stroke-linecap="round"/>
<g clip-path="url(#clip1_3_49)">
<path d="M599.6 110.8V156H525.2V390H469.2V156H394.8V110.8H599.6ZM598.059 278.4C598.059 256 602.459 236.133 611.259 218.8C620.326 201.467 632.459 188.133 647.659 178.8C663.126 169.467 680.326 164.8 699.259 164.8C715.793 164.8 730.193 168.133 742.459 174.8C754.993 181.467 764.993 189.867 772.459 200V168.4H828.859V390H772.459V357.6C765.259 368 755.259 376.667 742.459 383.6C729.926 390.267 715.393 393.6 698.859 393.6C680.193 393.6 663.126 388.8 647.659 379.2C632.459 369.6 620.326 356.133 611.259 338.8C602.459 321.2 598.059 301.067 598.059 278.4ZM772.459 279.2C772.459 265.6 769.793 254 764.459 244.4C759.126 234.533 751.926 227.067 742.859 222C733.793 216.667 724.059 214 713.659 214C703.259 214 693.659 216.533 684.859 221.6C676.059 226.667 668.859 234.133 663.259 244C657.926 253.6 655.259 265.067 655.259 278.4C655.259 291.733 657.926 303.467 663.259 313.6C668.859 323.467 676.059 331.067 684.859 336.4C693.926 341.733 703.526 344.4 713.659 344.4C724.059 344.4 733.793 341.867 742.859 336.8C751.926 331.467 759.126 324 764.459 314.4C769.793 304.533 772.459 292.8 772.459 279.2ZM940.353 393.6C922.22 393.6 905.953 390.4 891.553 384C877.153 377.333 865.686 368.4 857.153 357.2C848.886 346 844.353 333.6 843.553 320H899.953C901.02 328.533 905.153 335.6 912.353 341.2C919.82 346.8 929.02 349.6 939.953 349.6C950.62 349.6 958.886 347.467 964.753 343.2C970.886 338.933 973.953 333.467 973.953 326.8C973.953 319.6 970.22 314.267 962.753 310.8C955.553 307.067 943.953 303.067 927.953 298.8C911.42 294.8 897.82 290.667 887.153 286.4C876.753 282.133 867.686 275.6 859.953 266.8C852.486 258 848.753 246.133 848.753 231.2C848.753 218.933 852.22 207.733 859.153 197.6C866.353 187.467 876.486 179.467 889.553 173.6C902.886 167.733 918.486 164.8 936.353 164.8C962.753 164.8 983.82 171.467 999.553 184.8C1015.29 197.867 1023.95 215.6 1025.55 238H971.953C971.153 229.2 967.42 222.267 960.753 217.2C954.353 211.867 945.686 209.2 934.753 209.2C924.62 209.2 916.753 211.067 911.153 214.8C905.82 218.533 903.153 223.733 903.153 230.4C903.153 237.867 906.886 243.6 914.353 247.6C921.82 251.333 933.42 255.2 949.153 259.2C965.153 263.2 978.353 267.333 988.753 271.6C999.153 275.867 1008.09 282.533 1015.55 291.6C1023.29 300.4 1027.29 312.133 1027.55 326.8C1027.55 339.6 1023.95 351.067 1016.75 361.2C1009.82 371.333 999.686 379.333 986.353 385.2C973.286 390.8 957.953 393.6 940.353 393.6ZM1176.72 390L1101.52 295.6V390H1045.52V94H1101.52V262.4L1175.92 168.4H1248.72L1151.12 279.6L1249.52 390H1176.72ZM1423.52 110.8V156H1307.12V227.6H1396.32V272H1307.12V390H1251.12V110.8H1423.52ZM1491.23 94V390H1435.23V94H1491.23ZM1616.95 393.6C1595.62 393.6 1576.42 388.933 1559.35 379.6C1542.29 370 1528.82 356.533 1518.95 339.2C1509.35 321.867 1504.55 301.867 1504.55 279.2C1504.55 256.533 1509.49 236.533 1519.35 219.2C1529.49 201.867 1543.22 188.533 1560.55 179.2C1577.89 169.6 1597.22 164.8 1618.55 164.8C1639.89 164.8 1659.22 169.6 1676.55 179.2C1693.89 188.533 1707.49 201.867 1717.35 219.2C1727.49 236.533 1732.55 256.533 1732.55 279.2C1732.55 301.867 1727.35 321.867 1716.95 339.2C1706.82 356.533 1692.95 370 1675.35 379.6C1658.02 388.933 1638.55 393.6 1616.95 393.6ZM1616.95 344.8C1627.09 344.8 1636.55 342.4 1645.35 337.6C1654.42 332.533 1661.62 325.067 1666.95 315.2C1672.29 305.333 1674.95 293.333 1674.95 279.2C1674.95 258.133 1669.35 242 1658.15 230.8C1647.22 219.333 1633.75 213.6 1617.75 213.6C1601.75 213.6 1588.29 219.333 1577.35 230.8C1566.69 242 1561.35 258.133 1561.35 279.2C1561.35 300.267 1566.55 316.533 1576.95 328C1587.62 339.2 1600.95 344.8 1616.95 344.8ZM2052.83 168.4L1988.03 390H1927.63L1887.23 235.2L1846.83 390H1786.03L1720.83 168.4H1777.63L1816.83 337.2L1859.23 168.4H1918.43L1960.03 336.8L1999.23 168.4H2052.83Z" fill="#389472"/>
<path d="M683.243 273.882L704.263 296.134" stroke="#389472" stroke-width="15" stroke-linecap="round"/>
<path d="M747.736 264.328L704.351 296.231" stroke="#389472" stroke-width="15" stroke-linecap="round"/>
<path d="M1588.34 273.882L1609.36 296.134" stroke="#389472" stroke-width="15" stroke-linecap="round"/>
<path d="M1652.83 264.328L1609.45 296.231" stroke="#389472" stroke-width="15" stroke-linecap="round"/>
<path d="M498 405L2120 405" stroke="#389472" stroke-width="30" stroke-linejoin="round"/>
<line x1="2071.22" y1="361.51" x2="2129.51" y2="405.785" stroke="#389472" stroke-width="26" stroke-linecap="round"/>
<line x1="13" y1="-13" x2="86.2018" y2="-13" transform="matrix(-0.796356 0.604828 0.604828 0.796356 2148 409)" stroke="#389472" stroke-width="26" stroke-linecap="round"/>
<circle cx="496" cy="393" r="27" fill="#389472"/>
<path d="M525 350V350.747C525 367.26 533.95 382.476 548.383 390.5V390.5H501.617L525 350Z" fill="#389472"/>
<path d="M1857.38 350V350.747C1857.38 367.26 1866.33 382.476 1880.77 390.5V390.5H1834L1857.38 350Z" fill="#389472"/>
<path d="M1999.38 350V350.747C1999.38 367.26 2008.33 382.476 2022.77 390.5V390.5H1976L1999.38 350Z" fill="#389472"/>
<path d="M1307.38 353V353.747C1307.38 370.26 1316.33 385.476 1330.77 393.5V393.5H1284L1307.38 353Z" fill="#389472"/>
<path d="M1491.38 350L1492.36 353.642C1496.25 368.111 1506.42 380.075 1520.07 386.241L1529.5 390.5H1468L1491.38 350Z" fill="#389472"/>
<path d="M828.383 350V350C828.383 366.638 838.428 381.63 853.817 387.958L860 390.5H805L828.383 350Z" fill="#389472"/>
</g>
</g>
<defs>
<clipPath id="clip0_3_49">
<rect width="2143" height="500" fill="white"/>
</clipPath>
<clipPath id="clip1_3_49">
<rect width="1800" height="500" fill="white" transform="translate(365)"/>
</clipPath>
</defs>
</svg>
