<svg width="244" height="244" viewBox="0 0 244 244" fill="none" xmlns="http://www.w3.org/2000/svg">
<path d="M233.682 105.852C213.551 55.3194 205.364 56.1035 167.761 37.3277C156.449 30.5455 141.987 27.3812 129.659 32.6134C118.87 26.4489 108.81 36.6092 99.8206 36.1684C67.5164 28.1853 -4.52069 92.232 9.87988 123.77C9.99756 133.536 10.6974 135.293 13.7484 138.689C13.9246 142.472 15.2284 145.157 17.4176 147.021C22.0747 161.773 27.5264 164.142 39.7566 163.161C41.255 168.079 51.8715 165.954 66.6183 164.255C71.5002 168.168 75.8233 169.203 85.5311 169.589C97.3204 171.471 100.752 168.899 105.266 162.477C109.8 160.007 112.658 160.058 118.149 161.93C123.453 171.586 127.177 175.588 135.417 179.711C138.63 181.195 139.919 182.136 141.584 183.951C150.06 190.875 154.731 194.942 162.416 203.646C170.015 213.677 173.456 214.278 178.999 211.716C186.699 205.406 174.563 194.457 171.187 186.549C176.401 184.175 177.593 181.042 178.999 175.607C198.305 179.729 205.163 176.743 212.439 164.802C224.098 166.5 227.334 160.245 232.722 148.252C241.633 135.771 233.891 127.078 233.682 114.195C234.075 111.339 234.658 108.624 233.682 105.852Z" fill="#2563EB" stroke="black" stroke-width="4"/>
<path opacity="0.5" d="M232.722 148.252C227.334 160.245 224.098 166.5 212.439 164.802C205.163 176.743 198.305 179.729 178.999 175.607C177.593 181.042 176.401 184.175 171.187 186.549M232.722 148.252C241.633 135.771 233.891 127.078 233.682 114.195C234.075 111.339 234.658 108.624 233.682 105.852C213.551 55.3195 205.364 56.1035 167.761 37.3277C156.449 30.5455 141.828 29.2677 129.5 34.5M232.722 148.252C224.665 155.991 219.93 159.908 203.5 151.5M171.187 186.549C174.563 194.457 186.699 205.406 178.999 211.716C173.456 214.278 170.015 213.677 162.416 203.646C154.731 194.942 150.06 190.875 141.584 183.951C139.919 182.136 138.63 181.195 135.417 179.711C130.858 177.43 127.681 175.185 124.854 172M171.187 186.549C159.605 188.527 152.773 185.172 140 170.761M99.8206 36.1684C108.81 36.6092 118.711 28.3355 129.5 34.5M99.8206 36.1684C96 35.2243 92.5 43 95 50.5M99.8206 36.1684C87.4952 33.1225 69.3857 40.5623 52.5 52.6814M129.5 34.5C129.5 34.5 130 41 134.5 46.5C139 52 145.5 54.5 145.5 54.5M145.5 54.5C166.719 48.272 186.5 63 173 80M145.5 54.5C137.346 58.2633 132.019 59.4017 121 59.5M173 80C197.5 76.5 212.5 88 205 111C201.478 121.083 206.179 125.997 220 134M173 80L162 84M121 59.5C118.751 54.9162 116.701 53.0134 112 50.5M121 59.5C123.411 70.7522 115.853 78.5504 99 78.2431M85 76.5C90.2144 77.6096 94.8844 78.168 99 78.2431M99 78.2431C100.013 88.9408 102.74 92.5733 114.5 91.5M52.5 52.6814C41.2722 60.7397 30.5855 70.8669 22.5 81.356M52.5 52.6814C60.6567 54.9548 60.468 64.3137 68 68.5M68 68.5C75.2204 57.0707 82.2227 56.0079 97.5 60.5M68 68.5C63.3243 75.5877 67 82 79 100M79 100C83.1529 101.903 83.1979 105.652 80 116.18M79 100C68.0107 92.7318 50.8958 116.589 37.2631 106M30.5 99C33.017 102.03 35.1178 104.334 37.2631 106M37.2631 106C27.5 115 34 135 48 128.5M203.5 151.5C190.867 157.195 183.747 160.95 176 158.5M203.5 151.5C195.713 143.713 192.658 132.433 179.5 136M176 158.5C158 156 149 134 168 120.5M176 158.5C164.76 166.102 154.952 169.094 140 170.761M124.854 172C122.572 169.428 120.518 166.243 118.149 161.93C112.658 160.058 109.8 160.007 105.266 162.477C100.752 168.899 97.3204 171.471 85.5311 169.589C75.8233 169.203 71.5002 168.168 66.6183 164.255C62.3614 164.745 58.4486 165.271 55 165.653M124.854 172C130.494 171.647 135.482 171.265 140 170.761M124.854 172C139.733 158.023 144.586 141.366 140.706 131M120.5 121.5C131.14 119.658 138.019 123.819 140.706 131M140.706 131C139.245 120.483 139.766 116.521 143.5 113.5M159 67C142.478 76.7075 137.301 82.6379 144 95.5M144 95.5C132 96.5917 125.535 99.6944 113 109M144 95.5C162.061 93.8569 183.857 120.838 190.5 116.5M113 109C96.8048 122.131 97.4694 143.692 116 140.81M113 109C101.997 102.332 89.3711 106.991 80 116.18M125 138C121.636 139.495 118.637 140.4 116 140.81M116 140.81C127.5 150.5 107 167 94.5 152.5M94.5 152.5C85.3748 159.654 80.7786 161.256 74 157.5M94.5 152.5C90.5132 139.841 84.0248 136.197 69 132.5M69 132.5C53.9402 135.837 50.0424 142.26 55 165.653M69 132.5C71.4485 126.494 75.318 120.772 80 116.18M55 165.653C46.502 166.594 40.8225 166.659 39.7566 163.161C27.5264 164.142 22.0747 161.773 17.4176 147.021C15.2284 145.157 13.9246 142.472 13.7484 138.689C10.6974 135.293 9.99756 133.536 9.87988 123.77C4.62713 112.266 10.8749 96.4369 22.5 81.356M22.5 81.356C32.2281 76.7221 37.6809 74.1794 47 86.5" stroke="black"/>
<path d="M176.383 91.9827C176.383 105.385 165.51 116.252 152.095 116.252C138.68 116.252 127.807 105.385 127.807 91.9827C127.807 78.5804 138.68 67.7137 152.095 67.7137C165.51 67.7137 176.383 78.5804 176.383 91.9827Z" fill="white" stroke="black" stroke-width="3"/>
<path d="M162.176 91.9827C162.176 97.4167 157.662 101.822 152.095 101.822C146.527 101.822 142.014 97.4167 142.014 91.9827C142.014 86.5488 146.527 82.1437 152.095 82.1437C157.662 82.1437 162.176 86.5488 162.176 91.9827Z" fill="black"/>
<ellipse cx="156.315" cy="88.4688" rx="2.81327" ry="2.81116" fill="white"/>
<path d="M117.305 92.6855C117.305 106.088 106.431 116.954 93.0162 116.954C79.6011 116.954 68.7279 106.088 68.7279 92.6855C68.7279 79.2831 79.6011 68.4165 93.0162 68.4165C106.431 68.4165 117.305 79.2831 117.305 92.6855Z" fill="white" stroke="black" stroke-width="3"/>
<path d="M103.097 92.6854C103.097 98.1194 98.5837 102.524 93.0162 102.524C87.4487 102.524 82.9353 98.1194 82.9353 92.6854C82.9353 87.2515 87.4487 82.8464 93.0162 82.8464C98.5837 82.8464 103.097 87.2515 103.097 92.6854Z" fill="black"/>
<ellipse cx="97.2361" cy="89.1715" rx="2.81327" ry="2.81116" fill="white"/>
<path d="M170.432 132.704C138.624 145.811 114.155 147.705 84.8286 138.687C93.4384 149.888 104.091 155.984 118.406 156.609C134.585 157.317 156.73 146.923 170.432 132.704Z" fill="white"/>
<path d="M161.467 163.47C165.665 154.911 169.572 144.227 173.999 131.201C172.8 131.718 171.611 132.219 170.432 132.704C156.73 146.923 134.585 157.317 118.406 156.609C104.091 155.984 93.4384 149.888 84.8286 138.687C81.0244 137.517 77.1385 136.163 73.1442 134.627C80.7619 156.97 87.3054 171.933 96.882 180.778C104.817 171.047 108.318 164.878 129.925 165.43C136.692 160.605 145.35 159.963 161.467 163.47Z" fill="#630500"/>
<path d="M161.467 163.47C145.35 159.963 136.692 160.605 129.925 165.43C108.318 164.878 104.817 171.047 96.882 180.778C119.426 201.6 149.479 187.91 161.467 163.47Z" fill="#7C0600"/>
<path d="M161.467 163.47C145.35 159.963 136.692 160.605 129.925 165.43C108.318 164.878 104.817 171.047 96.882 180.778C119.426 201.6 149.479 187.91 161.467 163.47Z" fill="#FF6F73"/>
<path d="M54.0801 126.352C60.7477 129.532 67.0712 132.291 73.1442 134.627M197.368 119.982C189.083 124.301 181.341 128.04 173.999 131.201M192.571 114.837C196.756 118.208 198.582 120.859 200.812 127.087M51.6202 131.864C53.0867 127.159 54.6286 124.796 58.3849 120.962M73.1442 134.627C80.7619 156.97 87.3054 171.933 96.882 180.778M73.1442 134.627C77.1385 136.163 81.0244 137.517 84.8286 138.687M173.999 131.201C169.572 144.227 165.665 154.911 161.467 163.47M173.999 131.201C172.8 131.718 171.611 132.219 170.432 132.704M121.604 174.25C124.328 170.495 126.943 167.556 129.925 165.43M161.467 163.47C145.35 159.963 136.692 160.605 129.925 165.43M161.467 163.47C149.479 187.91 119.426 201.6 96.882 180.778M96.882 180.778C104.817 171.047 108.318 164.878 129.925 165.43M84.8286 138.687C114.155 147.705 138.624 145.811 170.432 132.704M84.8286 138.687C93.4383 149.888 104.091 155.984 118.406 156.609C134.585 157.317 156.73 146.923 170.432 132.704" stroke="black" stroke-width="4"/>
</svg>
